<svg version="1.1" xmlns="http://www.w3.org/2000/svg" viewBox="0 0 1149.3312629399586 436.3695652173913" width="2298.662525879917" height="872.7391304347826">
    <!-- svg-source:excalidraw -->

    <defs>
        <style class="style-fonts">
            @font-face {
            font-family: "Virgil";
            src: url("https://excalidraw.com/Virgil.woff2");
            }
            @font-face {
            font-family: "Cascadia";
            src: url("https://excalidraw.com/Cascadia.woff2");
            }
            @font-face {
            font-family: "Assistant";
            src: url("https://excalidraw.com/Assistant-Regular.woff2");
            }
        </style>

    </defs>
    <rect x="0" y="0" width="1149.3312629399586" height="436.3695652173913" fill="#ffffff"></rect><g stroke-linecap="round" transform="translate(10 147.42443064182194) rotate(0 55.27018633540371 50.29089026915115)"><path d="M25.15 0 C41.38 -1.24, 59.13 0.59, 85.39 0 M25.15 0 C41.4 0.73, 57.05 -0.02, 85.39 0 M85.39 0 C102.33 1.88, 110.99 7.21, 110.54 25.15 M85.39 0 C101.62 -1.97, 109.96 6.12, 110.54 25.15 M110.54 25.15 C109.71 41.26, 110.84 55.28, 110.54 75.44 M110.54 25.15 C111.38 42.38, 109.5 59.43, 110.54 75.44 M110.54 75.44 C111.54 91.41, 103.14 99.95, 85.39 100.58 M110.54 75.44 C110.77 90.9, 100.62 101.23, 85.39 100.58 M85.39 100.58 C68.51 98.95, 48.98 100.74, 25.15 100.58 M85.39 100.58 C61.84 101.32, 39.88 101.44, 25.15 100.58 M25.15 100.58 C6.7 101.98, -0.61 90.65, 0 75.44 M25.15 100.58 C7.74 102.18, -1.79 92.32, 0 75.44 M0 75.44 C-1.5 64.73, 1.84 54.76, 0 25.15 M0 75.44 C0.1 59.37, 1.23 42.44, 0 25.15 M0 25.15 C-0.33 10.31, 10.04 -1.86, 25.15 0 M0 25.15 C-0.33 6.6, 8.04 2.1, 25.15 0" stroke="#1e1e1e" stroke-width="2" fill="none"></path></g><g transform="translate(62.5535196369479 185.26708074534162) rotate(0 2.7166666984558105 12.44824016563146)"><text x="2.7166666984558105" y="17.447453416149067" font-family="Virgil, Segoe UI Emoji" font-size="19.917184265010352px" fill="#1e1e1e" text-anchor="middle" style="white-space: pre;" direction="ltr" dominant-baseline="alphabetic">1</text></g><g stroke-linecap="round" transform="translate(124.02587991718428 146.92650103519668) rotate(0 55.27018633540371 50.290890269151134)"><path d="M25.15 0 C35.63 -1.11, 49.26 -1.5, 85.39 0 M25.15 0 C38.89 -0.46, 50.14 -0.06, 85.39 0 M85.39 0 C101.07 -0.35, 109.77 8.19, 110.54 25.15 M85.39 0 C102.95 -0.39, 111.9 9.49, 110.54 25.15 M110.54 25.15 C110.85 44.4, 111.16 65.37, 110.54 75.44 M110.54 25.15 C110.15 39.13, 109.49 50.6, 110.54 75.44 M110.54 75.44 C108.73 92.49, 103.59 99.27, 85.39 100.58 M110.54 75.44 C110.56 91.95, 103.21 102.04, 85.39 100.58 M85.39 100.58 C65.72 101.93, 47.75 99.45, 25.15 100.58 M85.39 100.58 C71.47 101.5, 58.25 101.42, 25.15 100.58 M25.15 100.58 C7.12 100.93, 1.71 92.77, 0 75.44 M25.15 100.58 C8.3 100.35, -0.65 94.12, 0 75.44 M0 75.44 C0.5 58.44, 0.19 38.39, 0 25.15 M0 75.44 C-0.36 61.39, 0.1 46.48, 0 25.15 M0 25.15 C0.4 9.81, 8.87 -0.5, 25.15 0 M0 25.15 C-0.67 8.61, 8.71 -1.03, 25.15 0" stroke="#1e1e1e" stroke-width="2" fill="none"></path></g><g transform="translate(172.1793994587648 184.76915113871632) rotate(0 7.116666793823242 12.44824016563146)"><text x="7.116666793823242" y="17.447453416149067" font-family="Virgil, Segoe UI Emoji" font-size="19.917184265010352px" fill="#1e1e1e" text-anchor="middle" style="white-space: pre;" direction="ltr" dominant-baseline="alphabetic">2</text></g><g stroke-linecap="round" transform="translate(236.55797101449275 147.9223602484472) rotate(0 55.27018633540371 50.290890269151134)"><path d="M25.15 0 C40.63 1.49, 54.03 -0.41, 85.39 0 M25.15 0 C42.62 0.53, 60.71 -0.09, 85.39 0 M85.39 0 C102.59 -0.77, 109.95 9.34, 110.54 25.15 M85.39 0 C100.8 -0.12, 111.8 7.75, 110.54 25.15 M110.54 25.15 C110.01 37.11, 109.67 48.78, 110.54 75.44 M110.54 25.15 C110.5 44.38, 109.99 62.19, 110.54 75.44 M110.54 75.44 C112.19 93.95, 100.86 102.33, 85.39 100.58 M110.54 75.44 C111.39 94.13, 102.32 102.88, 85.39 100.58 M85.39 100.58 C65.61 100.59, 42.37 99.51, 25.15 100.58 M85.39 100.58 C66.82 100.63, 48.73 100.5, 25.15 100.58 M25.15 100.58 C8.69 102.57, -1.8 90.78, 0 75.44 M25.15 100.58 C9.47 100.01, 1.01 92.53, 0 75.44 M0 75.44 C1.55 58.17, 0.93 44.88, 0 25.15 M0 75.44 C-0.35 65.76, 0.33 54.71, 0 25.15 M0 25.15 C-0.91 8.68, 7.4 0.37, 25.15 0 M0 25.15 C1.15 9.37, 7.57 -1.88, 25.15 0" stroke="#1e1e1e" stroke-width="2" fill="none"></path></g><g transform="translate(285.01149074680814 185.7650103519669) rotate(0 6.816666603088379 12.44824016563146)"><text x="6.816666603088379" y="17.447453416149067" font-family="Virgil, Segoe UI Emoji" font-size="19.917184265010352px" fill="#1e1e1e" text-anchor="middle" style="white-space: pre;" direction="ltr" dominant-baseline="alphabetic">3</text></g><g stroke-linecap="round" transform="translate(349.0900621118012 148.91821946169773) rotate(0 55.27018633540371 50.290890269151134)"><path d="M25.15 0 C45.82 -0.7, 66.27 1.28, 85.39 0 M25.15 0 C45.79 -0.18, 65.91 -0.16, 85.39 0 M85.39 0 C101.9 0.63, 110.61 10.19, 110.54 25.15 M85.39 0 C103.5 0.86, 108.43 7.42, 110.54 25.15 M110.54 25.15 C111.75 36.33, 108.74 44.61, 110.54 75.44 M110.54 25.15 C111.02 43.88, 109.14 61.73, 110.54 75.44 M110.54 75.44 C111.09 93.24, 100.8 100.34, 85.39 100.58 M110.54 75.44 C110.11 90.35, 100.53 102.56, 85.39 100.58 M85.39 100.58 C65.61 102.25, 46.28 102.02, 25.15 100.58 M85.39 100.58 C71.23 100.91, 55.58 99.73, 25.15 100.58 M25.15 100.58 C7.83 98.75, 1.26 92.76, 0 75.44 M25.15 100.58 C10.01 101.4, 1.05 92.72, 0 75.44 M0 75.44 C-1.68 57.63, 1.75 42.28, 0 25.15 M0 75.44 C0.77 60.56, 0.43 46.25, 0 25.15 M0 25.15 C0.17 8.7, 8.49 -0.93, 25.15 0 M0 25.15 C1.3 7.37, 8.61 1.56, 25.15 0" stroke="#1e1e1e" stroke-width="2" fill="none"></path></g><g transform="translate(397.96024835183755 186.76086956521738) rotate(0 6.400000095367432 12.44824016563146)"><text x="6.400000095367432" y="17.447453416149067" font-family="Virgil, Segoe UI Emoji" font-size="19.917184265010352px" fill="#1e1e1e" text-anchor="middle" style="white-space: pre;" direction="ltr" dominant-baseline="alphabetic">4</text></g><g stroke-linecap="round" transform="translate(460.6221532091097 148.91821946169773) rotate(0 55.27018633540371 50.290890269151134)"><path d="M25.15 0 C42.63 -0.71, 59.64 1.56, 85.39 0 M25.15 0 C44.66 0.8, 66.28 0.87, 85.39 0 M85.39 0 C102.87 0.91, 110.99 8.96, 110.54 25.15 M85.39 0 C100.8 -1.11, 108.26 6.92, 110.54 25.15 M110.54 25.15 C109.19 44.47, 111.39 61.64, 110.54 75.44 M110.54 25.15 C110.48 40.78, 109.86 56.88, 110.54 75.44 M110.54 75.44 C109.66 92.39, 103.51 100.63, 85.39 100.58 M110.54 75.44 C112.69 91.35, 104.38 98.52, 85.39 100.58 M85.39 100.58 C75.24 100.51, 59.74 101.28, 25.15 100.58 M85.39 100.58 C72.9 101.05, 57.63 101.07, 25.15 100.58 M25.15 100.58 C7.61 100.87, -1.41 91.3, 0 75.44 M25.15 100.58 C7.89 101.91, 0.59 90.77, 0 75.44 M0 75.44 C1.46 58.26, -0.24 38.73, 0 25.15 M0 75.44 C0.5 59.65, -0.58 43.08, 0 25.15 M0 25.15 C-1.16 8.26, 8.91 -1.14, 25.15 0 M0 25.15 C0.99 6.39, 9.81 0.41, 25.15 0" stroke="#1e1e1e" stroke-width="2" fill="none"></path></g><g transform="translate(509.7090061476018 186.76086956521738) rotate(0 6.183333396911621 12.44824016563146)"><text x="6.183333396911621" y="17.447453416149067" font-family="Virgil, Segoe UI Emoji" font-size="19.917184265010352px" fill="#1e1e1e" text-anchor="middle" style="white-space: pre;" direction="ltr" dominant-baseline="alphabetic">5</text></g><g stroke-linecap="round" transform="translate(438.98861283643896 10.995859213250498) rotate(0 73.19565217391306 30.871635610766035)"><path d="M15.44 0 C61.52 -0.38, 104.6 -2.22, 130.96 0 M15.44 0 C61.31 -1.42, 105.29 -1.44, 130.96 0 M130.96 0 C140.53 -1, 147.76 4.04, 146.39 15.44 M130.96 0 C140.81 1.92, 145.23 4.01, 146.39 15.44 M146.39 15.44 C145.73 26.52, 145.09 37.56, 146.39 46.31 M146.39 15.44 C145.82 27.13, 146.8 38.16, 146.39 46.31 M146.39 46.31 C148.25 56.4, 139.87 63.33, 130.96 61.74 M146.39 46.31 C148.05 57.24, 139.36 59.85, 130.96 61.74 M130.96 61.74 C90.99 63.75, 53.19 63.03, 15.44 61.74 M130.96 61.74 C84.89 62.83, 39.42 62.58, 15.44 61.74 M15.44 61.74 C5.02 62.07, -1.32 54.61, 0 46.31 M15.44 61.74 C6.47 60.04, 0.43 55.92, 0 46.31 M0 46.31 C-0.3 38.38, -0.69 30.09, 0 15.44 M0 46.31 C0.8 38.09, 0.13 29.17, 0 15.44 M0 15.44 C-0.65 4.13, 3.31 1.03, 15.44 0 M0 15.44 C-0.09 6.12, 6.02 2.21, 15.44 0" stroke="#1e1e1e" stroke-width="2" fill="none"></path></g><g transform="translate(473.51759707211954 16.971014492753596) rotate(0 38.66666793823242 24.896480331262936)"><text x="38.66666793823242" y="17.447453416149067" font-family="Virgil, Segoe UI Emoji" font-size="19.917184265010352px" fill="#1e1e1e" text-anchor="middle" style="white-space: pre;" direction="ltr" dominant-baseline="alphabetic">address</text><text x="38.66666793823242" y="42.34393374741201" font-family="Virgil, Segoe UI Emoji" font-size="19.917184265010352px" fill="#1e1e1e" text-anchor="middle" style="white-space: pre;" direction="ltr" dominant-baseline="alphabetic">pointer</text></g><g stroke-linecap="round" transform="translate(587.3716356107659 10) rotate(0 39.8343685300207 30.87163561076605)"><path d="M15.44 0 C24.35 2.04, 35.16 1.29, 64.23 0 M15.44 0 C34.73 1.12, 55.07 -0.12, 64.23 0 M64.23 0 C74.58 -0.62, 79.89 4.5, 79.67 15.44 M64.23 0 C75.02 -0.61, 78.53 6.59, 79.67 15.44 M79.67 15.44 C81.77 24.15, 79.59 35.02, 79.67 46.31 M79.67 15.44 C78.77 25.54, 78.93 36.56, 79.67 46.31 M79.67 46.31 C80.85 55.16, 74.97 63.69, 64.23 61.74 M79.67 46.31 C78.47 56.11, 75.62 59.47, 64.23 61.74 M64.23 61.74 C52.88 61.79, 44.17 62.58, 15.44 61.74 M64.23 61.74 C51.65 62.1, 37.49 62.31, 15.44 61.74 M15.44 61.74 C4.73 63.42, 1.61 56.52, 0 46.31 M15.44 61.74 C6.72 61.96, -1.07 56.74, 0 46.31 M0 46.31 C-0.57 36.84, -1.86 24.1, 0 15.44 M0 46.31 C0.81 37.85, 1.25 29.79, 0 15.44 M0 15.44 C-0.42 6.59, 3.59 -1.43, 15.44 0 M0 15.44 C-1.31 6.49, 3.95 -0.03, 15.44 0" stroke="#1e1e1e" stroke-width="2" fill="none"></path></g><g transform="translate(598.8393373469635 15.975155279503099) rotate(0 28.366666793823242 24.896480331262936)"><text x="28.366666793823242" y="17.447453416149067" font-family="Virgil, Segoe UI Emoji" font-size="19.917184265010352px" fill="#1e1e1e" text-anchor="middle" style="white-space: pre;" direction="ltr" dominant-baseline="alphabetic">length</text><text x="28.366666793823242" y="42.34393374741201" font-family="Virgil, Segoe UI Emoji" font-size="19.917184265010352px" fill="#1e1e1e" text-anchor="middle" style="white-space: pre;" direction="ltr" dominant-baseline="alphabetic">7</text></g><g stroke-linecap="round" transform="translate(670.5258799171843 10.995859213250498) rotate(0 54.77225672877853 30.87163561076605)"><path d="M15.44 0 C43.15 -0.42, 69.64 1.61, 94.11 0 M15.44 0 C36.23 0.23, 55.64 1.21, 94.11 0 M94.11 0 C104.73 -0.73, 108.54 3.93, 109.54 15.44 M94.11 0 C104.86 0.2, 108.81 4.29, 109.54 15.44 M109.54 15.44 C110.65 24.41, 109.85 32.89, 109.54 46.31 M109.54 15.44 C108.85 21.93, 109.41 29.69, 109.54 46.31 M109.54 46.31 C109.4 57.88, 104.95 60.25, 94.11 61.74 M109.54 46.31 C107.83 58.09, 103.96 61.07, 94.11 61.74 M94.11 61.74 C68.38 62.79, 39.68 61.29, 15.44 61.74 M94.11 61.74 C72.16 62.1, 49.98 61.49, 15.44 61.74 M15.44 61.74 C3.24 62.52, -0.92 57.47, 0 46.31 M15.44 61.74 C4.61 63.5, -1.8 57.11, 0 46.31 M0 46.31 C-1.26 38.36, -1.27 29.25, 0 15.44 M0 46.31 C-0.79 40.38, 0.54 33.33, 0 15.44 M0 15.44 C0.72 3.71, 3.96 1.1, 15.44 0 M0 15.44 C0.33 5.75, 4.18 0.53, 15.44 0" stroke="#1e1e1e" stroke-width="2" fill="none"></path></g><g transform="translate(684.4814709965488 16.971014492753596) rotate(0 40.81666564941406 24.896480331262936)"><text x="40.81666564941406" y="17.447453416149067" font-family="Virgil, Segoe UI Emoji" font-size="19.917184265010352px" fill="#1e1e1e" text-anchor="middle" style="white-space: pre;" direction="ltr" dominant-baseline="alphabetic">capacity</text><text x="40.81666564941406" y="42.34393374741201" font-family="Virgil, Segoe UI Emoji" font-size="19.917184265010352px" fill="#1e1e1e" text-anchor="middle" style="white-space: pre;" direction="ltr" dominant-baseline="alphabetic">10</text></g><g stroke-linecap="round"><g transform="translate(437.49482401656326 32.20805214149675) rotate(0 -189.8467908902692 57.10818925016261)"><path d="M0 1.06 C-63.47 4.4, -318.11 0.94, -380.88 19.92 C-443.66 38.9, -377.37 99.13, -376.65 114.94 M-1.46 0.57 C-64.57 3.55, -316.15 -0.78, -378.8 17.95 C-441.44 36.69, -377.76 97.22, -377.32 112.98" stroke="#1e1e1e" stroke-width="2" fill="none"></path></g><g transform="translate(437.49482401656326 32.20805214149675) rotate(0 -189.8467908902692 57.10818925016261)"><path d="M-395.69 96.03 C-388.58 99, -384.46 106.25, -377.32 112.98 M-395.69 96.03 C-388.44 101.35, -382.13 108.59, -377.32 112.98" stroke="#1e1e1e" stroke-width="2" fill="none"></path></g><g transform="translate(437.49482401656326 32.20805214149675) rotate(0 -189.8467908902692 57.10818925016261)"><path d="M-380.5 88.18 C-377.84 93.46, -378.17 103, -377.32 112.98 M-380.5 88.18 C-378.7 96.41, -377.88 106.48, -377.32 112.98" stroke="#1e1e1e" stroke-width="2" fill="none"></path></g></g><mask></mask><g stroke-linecap="round" transform="translate(574.3312629399586 148.5) rotate(0 55.5 50.5)"><path d="M25.25 0 C50.18 -0.96, 74.01 0.22, 85.75 0 M25.25 0 C48.02 0.07, 70.16 0.74, 85.75 0 M85.75 0 C102.01 -0.7, 110.08 6.51, 111 25.25 M85.75 0 C100.65 -0.72, 111.63 7.73, 111 25.25 M111 25.25 C112.33 40.24, 110.24 58.19, 111 75.75 M111 25.25 C110.97 39.07, 110.01 52.28, 111 75.75 M111 75.75 C112.76 91.8, 104.39 101.51, 85.75 101 M111 75.75 C111.19 91.2, 104.06 99.01, 85.75 101 M85.75 101 C71.79 101.15, 57.53 99.7, 25.25 101 M85.75 101 C64.49 100.28, 41.01 100.99, 25.25 101 M25.25 101 C9.6 102.97, -0.05 92.44, 0 75.75 M25.25 101 C10.05 99.32, 1.3 92.78, 0 75.75 M0 75.75 C2.15 56.81, 1.49 34.8, 0 25.25 M0 75.75 C0.73 65.09, -0.38 55.84, 0 25.25 M0 25.25 C-1.96 9.09, 6.83 1.66, 25.25 0 M0 25.25 C1.82 6.8, 8.58 1.74, 25.25 0" stroke="#1e1e1e" stroke-width="2" fill="none"></path></g><g transform="translate(623.4312628445912 186.5) rotate(0 6.400000095367432 12.5)"><text x="6.400000095367432" y="17.52" font-family="Virgil, Segoe UI Emoji" font-size="20px" fill="#1e1e1e" text-anchor="middle" style="white-space: pre;" direction="ltr" dominant-baseline="alphabetic">6</text></g><g stroke-linecap="round" transform="translate(687.3312629399586 149.5) rotate(0 55.5 50.5)"><path d="M25.25 0 C40.28 1.22, 56.31 -0.15, 85.75 0 M25.25 0 C42.91 -0.56, 60.55 -0.05, 85.75 0 M85.75 0 C103.59 1.71, 111.09 9.36, 111 25.25 M85.75 0 C104.09 -1.99, 109 6.99, 111 25.25 M111 25.25 C111.85 45.91, 112.34 62.89, 111 75.75 M111 25.25 C111.84 38.08, 111.47 51.22, 111 75.75 M111 75.75 C109.56 91.15, 103.05 99.6, 85.75 101 M111 75.75 C112.49 90.46, 104.54 101.27, 85.75 101 M85.75 101 C64.12 100.19, 41.23 103.13, 25.25 101 M85.75 101 C63.74 100.55, 40.83 100.67, 25.25 101 M25.25 101 C7.84 99.95, -0.83 92.74, 0 75.75 M25.25 101 C6.48 102.9, -1.67 90.7, 0 75.75 M0 75.75 C0.53 64.47, 0.69 51.88, 0 25.25 M0 75.75 C0.49 55.97, 0.32 37.4, 0 25.25 M0 25.25 C1.52 7.81, 9.1 0.62, 25.25 0 M0 25.25 C1.6 8.63, 8.9 -1.17, 25.25 0" stroke="#1e1e1e" stroke-width="2" fill="none"></path></g><g transform="translate(737.4479297337818 187.5) rotate(0 5.383333206176758 12.5)"><text x="5.383333206176758" y="17.52" font-family="Virgil, Segoe UI Emoji" font-size="20px" fill="#1e1e1e" text-anchor="middle" style="white-space: pre;" direction="ltr" dominant-baseline="alphabetic">7</text></g><g stroke-linecap="round" transform="translate(801.3312629399586 149.5) rotate(0 55.5 50.5)"><path d="M25.25 0 C49.54 -1.64, 69.95 0.29, 85.75 0 M25.25 0 C40.49 -0.27, 57.19 -0.24, 85.75 0 M85.75 0 C102.34 1.53, 109.6 8.62, 111 25.25 M85.75 0 C104.41 1.09, 110.43 8.23, 111 25.25 M111 25.25 C110.89 37.09, 110.64 48.84, 111 75.75 M111 25.25 C110.48 36.39, 110.35 47.17, 111 75.75 M111 75.75 C111.59 91.42, 104.4 101.99, 85.75 101 M111 75.75 C112.39 94.28, 104.26 100.38, 85.75 101 M85.75 101 C68.89 101.95, 56.82 98.8, 25.25 101 M85.75 101 C70.98 101.74, 57.11 101.94, 25.25 101 M25.25 101 C7.96 100.01, -0.25 90.72, 0 75.75 M25.25 101 C10.07 100.52, 1.41 92.06, 0 75.75 M0 75.75 C-0.03 62.43, -1.35 49.14, 0 25.25 M0 75.75 C-0.22 60.42, 0.01 43.85, 0 25.25 M0 25.25 C1.25 7.88, 9.87 -0.35, 25.25 0 M0 25.25 C2.03 8.18, 6.98 -0.94, 25.25 0" stroke="#1e1e1e" stroke-width="2" fill="none"></path></g><g transform="translate(849.9479297337818 187.5) rotate(0 6.883333206176758 12.5)"><text x="6.883333206176758" y="17.52" font-family="Virgil, Segoe UI Emoji" font-size="20px" fill="#1e1e1e" text-anchor="middle" style="white-space: pre;" direction="ltr" dominant-baseline="alphabetic">0</text></g><g stroke-linecap="round" transform="translate(915.3312629399586 149.5) rotate(0 55.5 50.5)"><path d="M25.25 0 C40.01 0.74, 55.95 1.7, 85.75 0 M25.25 0 C48.75 1.28, 73.26 0.36, 85.75 0 M85.75 0 C101.39 -0.52, 110.66 7.11, 111 25.25 M85.75 0 C104.29 1.75, 110 8.19, 111 25.25 M111 25.25 C111.82 43.1, 111.47 58.83, 111 75.75 M111 25.25 C111.59 43.39, 111.37 62.29, 111 75.75 M111 75.75 C109.06 90.97, 104.27 99.56, 85.75 101 M111 75.75 C111.95 90.34, 104.15 99.41, 85.75 101 M85.75 101 C65.43 99.31, 48.51 102.23, 25.25 101 M85.75 101 C72.33 101.16, 61.49 101.9, 25.25 101 M25.25 101 C8.7 99.54, 0.94 93.41, 0 75.75 M25.25 101 C7.65 102.64, -1.84 90.33, 0 75.75 M0 75.75 C1.61 64.04, 0.55 54.35, 0 25.25 M0 75.75 C-0.32 61.37, 0.98 46.57, 0 25.25 M0 25.25 C-0.87 9.14, 10.07 0.71, 25.25 0 M0 25.25 C2.07 7.64, 10.26 0.23, 25.25 0" stroke="#1e1e1e" stroke-width="2" fill="none"></path></g><g transform="translate(963.9479297337818 187.5) rotate(0 6.883333206176758 12.5)"><text x="6.883333206176758" y="17.52" font-family="Virgil, Segoe UI Emoji" font-size="20px" fill="#1e1e1e" text-anchor="middle" style="white-space: pre;" direction="ltr" dominant-baseline="alphabetic">0</text></g><g stroke-linecap="round" transform="translate(1028.3312629399586 152.5) rotate(0 55.5 50.5)"><path d="M25.25 0 C41.31 -1.31, 58.58 1.76, 85.75 0 M25.25 0 C48.91 0.47, 70.42 1.03, 85.75 0 M85.75 0 C102.03 1.73, 111.9 7.42, 111 25.25 M85.75 0 C102.47 -2.28, 112.05 7.23, 111 25.25 M111 25.25 C109.46 42.93, 109.49 65.57, 111 75.75 M111 25.25 C111.32 39.1, 111.24 52.8, 111 75.75 M111 75.75 C112 94.06, 103.5 100.59, 85.75 101 M111 75.75 C109.61 91.73, 100.45 99.4, 85.75 101 M85.75 101 C64.42 101.58, 40.45 99.86, 25.25 101 M85.75 101 C71.08 100.94, 56.29 101.47, 25.25 101 M25.25 101 C9.67 100.92, -1.48 93.97, 0 75.75 M25.25 101 C10.53 100.48, -0.24 93.1, 0 75.75 M0 75.75 C1.84 66.42, -0.47 56.05, 0 25.25 M0 75.75 C0.51 64.65, -1.19 52.8, 0 25.25 M0 25.25 C0.74 9.4, 9.22 -1.22, 25.25 0 M0 25.25 C0.81 10.35, 8.51 1.98, 25.25 0" stroke="#1e1e1e" stroke-width="2" fill="none"></path></g><g transform="translate(1076.9479297337818 190.5) rotate(0 6.883333206176758 12.5)"><text x="6.883333206176758" y="17.52" font-family="Virgil, Segoe UI Emoji" font-size="20px" fill="#1e1e1e" text-anchor="middle" style="white-space: pre;" direction="ltr" dominant-baseline="alphabetic">0</text></g><g stroke-linecap="round" transform="translate(443.2903726708075 364.6262939958592) rotate(0 73.19565217391306 30.87163561076605)"><path d="M15.44 0 C50.54 1.84, 83.1 1.79, 130.96 0 M15.44 0 C42.37 0.67, 67.11 1.21, 130.96 0 M130.96 0 C141.06 -0.39, 145.11 6.7, 146.39 15.44 M130.96 0 C141.26 2.24, 148.22 3.47, 146.39 15.44 M146.39 15.44 C146.93 24.36, 146.77 33.91, 146.39 46.31 M146.39 15.44 C146.8 27.35, 147.06 38.51, 146.39 46.31 M146.39 46.31 C146.68 55.78, 141.11 63.36, 130.96 61.74 M146.39 46.31 C146.43 58.32, 140.98 62.34, 130.96 61.74 M130.96 61.74 C102.64 62.51, 71.24 63.87, 15.44 61.74 M130.96 61.74 C100.79 62.06, 70.06 62.38, 15.44 61.74 M15.44 61.74 C6.43 60.66, -1.66 58.03, 0 46.31 M15.44 61.74 C5.03 63.7, -0.02 55.86, 0 46.31 M0 46.31 C-1.86 36.82, -2.13 28.05, 0 15.44 M0 46.31 C0.27 36.24, -0.6 27.74, 0 15.44 M0 15.44 C-1.36 5.58, 3.71 -0.96, 15.44 0 M0 15.44 C-1.63 4.03, 7.2 -0.04, 15.44 0" stroke="#1e1e1e" stroke-width="2" fill="none"></path></g><g transform="translate(477.8193569064881 370.6014492753623) rotate(0 38.66666793823242 24.89648033126295)"><text x="38.66666793823242" y="17.447453416149067" font-family="Virgil, Segoe UI Emoji" font-size="19.917184265010352px" fill="#1e1e1e" text-anchor="middle" style="white-space: pre;" direction="ltr" dominant-baseline="alphabetic">address</text><text x="38.66666793823242" y="42.34393374741201" font-family="Virgil, Segoe UI Emoji" font-size="19.917184265010352px" fill="#1e1e1e" text-anchor="middle" style="white-space: pre;" direction="ltr" dominant-baseline="alphabetic">pointer</text></g><g stroke-linecap="round" transform="translate(591.6733954451345 363.6304347826087) rotate(0 39.8343685300207 30.87163561076605)"><path d="M15.44 0 C32.5 -0.2, 50.52 1.09, 64.23 0 M15.44 0 C27.71 -0.23, 39.53 0.74, 64.23 0 M64.23 0 C74.54 1.95, 81.26 3.69, 79.67 15.44 M64.23 0 C75.14 1.03, 78.67 5.6, 79.67 15.44 M79.67 15.44 C81.13 22.24, 80.48 31.38, 79.67 46.31 M79.67 15.44 C80.05 25.71, 79.84 37.61, 79.67 46.31 M79.67 46.31 C79.7 58.1, 74.29 62.26, 64.23 61.74 M79.67 46.31 C78.77 54.51, 76.49 63.82, 64.23 61.74 M64.23 61.74 C49.4 60.71, 36.83 62.53, 15.44 61.74 M64.23 61.74 C50.95 61.29, 35.56 62.54, 15.44 61.74 M15.44 61.74 C5.04 63.44, -0.02 55.95, 0 46.31 M15.44 61.74 C4.93 63.86, 2.05 54.78, 0 46.31 M0 46.31 C0.21 38.21, -1.29 30.03, 0 15.44 M0 46.31 C-0.51 40.1, -0.55 32.97, 0 15.44 M0 15.44 C-1.42 4.17, 6.93 -0.03, 15.44 0 M0 15.44 C0.51 4.28, 2.87 -2.24, 15.44 0" stroke="#1e1e1e" stroke-width="2" fill="none"></path></g><g transform="translate(603.1410971813319 369.6055900621118) rotate(0 28.366666793823185 24.89648033126295)"><text x="28.366666793823242" y="17.447453416149067" font-family="Virgil, Segoe UI Emoji" font-size="19.917184265010352px" fill="#1e1e1e" text-anchor="middle" style="white-space: pre;" direction="ltr" dominant-baseline="alphabetic">length</text><text x="28.366666793823242" y="42.34393374741201" font-family="Virgil, Segoe UI Emoji" font-size="19.917184265010352px" fill="#1e1e1e" text-anchor="middle" style="white-space: pre;" direction="ltr" dominant-baseline="alphabetic">5</text></g><g stroke-linecap="round" transform="translate(674.8276397515526 364.6262939958592) rotate(0 54.77225672877853 30.87163561076605)"><path d="M15.44 0 C38.8 -2.01, 64.18 -0.77, 94.11 0 M15.44 0 C37.5 0.36, 60.35 -1.34, 94.11 0 M94.11 0 C104.94 0.9, 108.68 5.54, 109.54 15.44 M94.11 0 C103.06 0.27, 107.58 6.78, 109.54 15.44 M109.54 15.44 C110.58 25.23, 109.97 32.24, 109.54 46.31 M109.54 15.44 C109.54 24.18, 109.41 31.69, 109.54 46.31 M109.54 46.31 C108.76 54.78, 106.11 63.55, 94.11 61.74 M109.54 46.31 C109.29 57.19, 105.71 60.9, 94.11 61.74 M94.11 61.74 C75.37 61.83, 57.57 63.22, 15.44 61.74 M94.11 61.74 C74.72 63.15, 55.42 61.98, 15.44 61.74 M15.44 61.74 C4.96 63.59, 1.78 55.02, 0 46.31 M15.44 61.74 C4.55 59.62, -0.35 56.51, 0 46.31 M0 46.31 C-1.59 35.39, -0.3 25.29, 0 15.44 M0 46.31 C-0.49 35.89, 1.11 26.44, 0 15.44 M0 15.44 C0.44 4.39, 3.17 -1.95, 15.44 0 M0 15.44 C-0.95 4.44, 4.85 -2.21, 15.44 0" stroke="#1e1e1e" stroke-width="2" fill="none"></path></g><g transform="translate(688.7832308309171 370.6014492753623) rotate(0 40.81666564941406 24.89648033126295)"><text x="40.81666564941406" y="17.447453416149067" font-family="Virgil, Segoe UI Emoji" font-size="19.917184265010352px" fill="#1e1e1e" text-anchor="middle" style="white-space: pre;" direction="ltr" dominant-baseline="alphabetic">capacity</text><text x="40.81666564941406" y="42.34393374741201" font-family="Virgil, Segoe UI Emoji" font-size="19.917184265010352px" fill="#1e1e1e" text-anchor="middle" style="white-space: pre;" direction="ltr" dominant-baseline="alphabetic">8</text></g><g stroke-linecap="round"><g transform="translate(440.8312629399586 409.2504601667995) rotate(0 -74.5136740071523 -79.873159690025)"><path d="M0.66 0.9 C-23.61 -0.47, -120.41 17.82, -145.3 -9.08 C-170.19 -35.99, -148.1 -135.25, -148.67 -160.53 M-0.46 0.32 C-24.93 -1.28, -121.61 16.07, -146.41 -10.59 C-171.21 -37.25, -148.93 -134.69, -149.25 -159.63" stroke="#1e1e1e" stroke-width="2" fill="none"></path></g><g transform="translate(440.8312629399586 409.2504601667995) rotate(0 -74.5136740071523 -79.873159690025)"><path d="M-143.15 -135.38 C-143.46 -143.7, -144.98 -150.45, -149.25 -159.63 M-143.15 -135.38 C-144.45 -140.55, -145.66 -147.1, -149.25 -159.63" stroke="#1e1e1e" stroke-width="2" fill="none"></path></g><g transform="translate(440.8312629399586 409.2504601667995) rotate(0 -74.5136740071523 -79.873159690025)"><path d="M-160.16 -137.13 C-154.97 -144.98, -150.99 -151.16, -149.25 -159.63 M-160.16 -137.13 C-157.46 -141.75, -154.68 -147.89, -149.25 -159.63" stroke="#1e1e1e" stroke-width="2" fill="none"></path></g></g><mask></mask></svg>
