<svg version="1.1" xmlns="http://www.w3.org/2000/svg" viewBox="0 0 584.5 261.5" width="1169" height="523">
    <!-- svg-source:excalidraw -->

    <defs>
        <style class="style-fonts">
            @font-face {
            font-family: "Virgil";
            src: url("https://excalidraw.com/Virgil.woff2");
            }
            @font-face {
            font-family: "Cascadia";
            src: url("https://excalidraw.com/Cascadia.woff2");
            }
            @font-face {
            font-family: "Assistant";
            src: url("https://excalidraw.com/Assistant-Regular.woff2");
            }
        </style>

    </defs>
    <rect x="0" y="0" width="584.5" height="261.5" fill="#ffffff"></rect><g stroke-linecap="round" transform="translate(10 149) rotate(0 55.5 50.5)"><path d="M25.25 0 C41.55 -1.25, 59.38 0.59, 85.75 0 M25.25 0 C41.57 0.73, 57.29 -0.02, 85.75 0 M85.75 0 C102.75 1.88, 111.45 7.25, 111 25.25 M85.75 0 C102.05 -1.97, 110.42 6.15, 111 25.25 M111 25.25 C110.17 41.43, 111.3 55.51, 111 75.75 M111 25.25 C111.84 42.55, 109.96 59.68, 111 75.75 M111 75.75 C112 91.8, 103.56 100.36, 85.75 101 M111 75.75 C111.22 91.28, 101.05 101.65, 85.75 101 M85.75 101 C68.79 99.37, 49.18 101.15, 25.25 101 M85.75 101 C62.11 101.74, 40.04 101.86, 25.25 101 M25.25 101 C6.74 102.4, -0.61 91.04, 0 75.75 M25.25 101 C7.78 102.59, -1.79 92.7, 0 75.75 M0 75.75 C-1.5 65, 1.84 54.98, 0 25.25 M0 75.75 C0.1 59.62, 1.23 42.62, 0 25.25 M0 25.25 C-0.33 10.34, 10.08 -1.86, 25.25 0 M0 25.25 C-0.33 6.64, 8.07 2.1, 25.25 0" stroke="#1e1e1e" stroke-width="2" fill="none"></path></g><g transform="translate(62.78333330154419 187) rotate(0 2.7166666984558105 12.5)"><text x="2.7166666984558105" y="17.52" font-family="Virgil, Segoe UI Emoji" font-size="20px" fill="#1e1e1e" text-anchor="middle" style="white-space: pre;" direction="ltr" dominant-baseline="alphabetic">1</text></g><g stroke-linecap="round" transform="translate(124.5 148.5) rotate(0 55.5 50.5)"><path d="M25.25 0 C35.78 -1.11, 49.47 -1.5, 85.75 0 M25.25 0 C39.04 -0.46, 50.35 -0.06, 85.75 0 M85.75 0 C101.49 -0.35, 110.23 8.23, 111 25.25 M85.75 0 C103.38 -0.39, 112.36 9.52, 111 25.25 M111 25.25 C111.31 44.59, 111.62 65.63, 111 75.75 M111 25.25 C110.61 39.29, 109.95 50.81, 111 75.75 M111 75.75 C109.19 92.87, 104.01 99.69, 85.75 101 M111 75.75 C111.02 92.33, 103.63 102.45, 85.75 101 M85.75 101 C66 102.35, 47.95 99.87, 25.25 101 M85.75 101 C71.77 101.92, 58.5 101.84, 25.25 101 M25.25 101 C7.15 101.35, 1.71 93.15, 0 75.75 M25.25 101 C8.34 100.77, -0.65 94.5, 0 75.75 M0 75.75 C0.5 58.68, 0.19 38.55, 0 25.25 M0 75.75 C-0.36 61.65, 0.1 46.68, 0 25.25 M0 25.25 C0.4 9.85, 8.9 -0.5, 25.25 0 M0 25.25 C-0.67 8.65, 8.74 -1.03, 25.25 0" stroke="#1e1e1e" stroke-width="2" fill="none"></path></g><g transform="translate(172.88333320617676 186.5) rotate(0 7.116666793823242 12.5)"><text x="7.116666793823242" y="17.52" font-family="Virgil, Segoe UI Emoji" font-size="20px" fill="#1e1e1e" text-anchor="middle" style="white-space: pre;" direction="ltr" dominant-baseline="alphabetic">2</text></g><g stroke-linecap="round" transform="translate(237.5 149.5) rotate(0 55.5 50.5)"><path d="M25.25 0 C40.8 1.49, 54.25 -0.41, 85.75 0 M25.25 0 C42.8 0.53, 60.96 -0.09, 85.75 0 M85.75 0 C103.01 -0.77, 110.41 9.38, 111 25.25 M85.75 0 C101.23 -0.12, 112.25 7.78, 111 25.25 M111 25.25 C110.47 37.26, 110.12 48.98, 111 75.75 M111 25.25 C110.96 44.56, 110.45 62.45, 111 75.75 M111 75.75 C112.65 94.34, 101.28 102.75, 85.75 101 M111 75.75 C111.85 94.52, 102.74 103.3, 85.75 101 M85.75 101 C65.87 101.02, 42.55 99.93, 25.25 101 M85.75 101 C67.1 101.04, 48.94 100.92, 25.25 101 M25.25 101 C8.73 102.99, -1.8 91.17, 0 75.75 M25.25 101 C9.51 100.43, 1.01 92.91, 0 75.75 M0 75.75 C1.55 58.42, 0.93 45.06, 0 25.25 M0 75.75 C-0.35 66.04, 0.33 54.94, 0 25.25 M0 25.25 C-0.91 8.71, 7.44 0.37, 25.25 0 M0 25.25 C1.15 9.4, 7.6 -1.88, 25.25 0" stroke="#1e1e1e" stroke-width="2" fill="none"></path></g><g transform="translate(286.1833333969116 187.5) rotate(0 6.816666603088379 12.5)"><text x="6.816666603088379" y="17.52" font-family="Virgil, Segoe UI Emoji" font-size="20px" fill="#1e1e1e" text-anchor="middle" style="white-space: pre;" direction="ltr" dominant-baseline="alphabetic">3</text></g><g stroke-linecap="round" transform="translate(350.5 150.5) rotate(0 55.5 50.5)"><path d="M25.25 0 C46.01 -0.7, 66.54 1.28, 85.75 0 M25.25 0 C45.98 -0.18, 66.19 -0.16, 85.75 0 M85.75 0 C102.33 0.63, 111.07 10.23, 111 25.25 M85.75 0 C103.92 0.86, 108.89 7.46, 111 25.25 M111 25.25 C112.21 36.48, 109.2 44.8, 111 75.75 M111 25.25 C111.47 44.06, 109.6 61.99, 111 75.75 M111 75.75 C111.55 93.63, 101.22 100.76, 85.75 101 M111 75.75 C110.57 90.73, 100.96 102.97, 85.75 101 M85.75 101 C65.89 102.67, 46.47 102.44, 25.25 101 M85.75 101 C71.52 101.33, 55.81 100.14, 25.25 101 M25.25 101 C7.86 99.17, 1.26 93.14, 0 75.75 M25.25 101 C10.04 101.81, 1.05 93.1, 0 75.75 M0 75.75 C-1.68 57.87, 1.75 42.46, 0 25.25 M0 75.75 C0.77 60.81, 0.43 46.44, 0 25.25 M0 25.25 C0.17 8.73, 8.52 -0.93, 25.25 0 M0 25.25 C1.3 7.4, 8.64 1.56, 25.25 0" stroke="#1e1e1e" stroke-width="2" fill="none"></path></g><g transform="translate(399.11666679382324 188.5) rotate(0 6.883333206176758 12.5)"><text x="6.883333206176758" y="17.52" font-family="Virgil, Segoe UI Emoji" font-size="20px" fill="#1e1e1e" text-anchor="middle" style="white-space: pre;" direction="ltr" dominant-baseline="alphabetic">0</text></g><g stroke-linecap="round" transform="translate(463.5 150.5) rotate(0 55.5 50.5)"><path d="M25.25 0 C42.8 -0.71, 59.88 1.56, 85.75 0 M25.25 0 C44.85 0.8, 66.55 0.87, 85.75 0 M85.75 0 C103.29 0.91, 111.45 8.99, 111 25.25 M85.75 0 C101.22 -1.11, 108.72 6.96, 111 25.25 M111 25.25 C109.65 44.65, 111.85 61.9, 111 75.75 M111 25.25 C110.94 40.95, 110.32 57.12, 111 75.75 M111 75.75 C110.12 92.78, 103.94 101.05, 85.75 101 M111 75.75 C113.15 91.73, 104.8 98.94, 85.75 101 M85.75 101 C75.54 100.92, 60 101.7, 25.25 101 M85.75 101 C73.2 101.47, 57.87 101.49, 25.25 101 M25.25 101 C7.65 101.29, -1.41 91.69, 0 75.75 M25.25 101 C7.93 102.33, 0.59 91.15, 0 75.75 M0 75.75 C1.46 58.51, -0.24 38.9, 0 25.25 M0 75.75 C0.5 59.9, -0.58 43.25, 0 25.25 M0 25.25 C-1.16 8.29, 8.95 -1.14, 25.25 0 M0 25.25 C0.99 6.43, 9.84 0.41, 25.25 0" stroke="#1e1e1e" stroke-width="2" fill="none"></path></g><g transform="translate(512.1166667938232 188.5) rotate(0 6.883333206176758 12.5)"><text x="6.883333206176758" y="17.52" font-family="Virgil, Segoe UI Emoji" font-size="20px" fill="#1e1e1e" text-anchor="middle" style="white-space: pre;" direction="ltr" dominant-baseline="alphabetic">0</text></g><g stroke-linecap="round" transform="translate(133.5 11) rotate(0 73.5 31)"><path d="M15.5 0 C61.77 -0.38, 105.03 -2.22, 131.5 0 M15.5 0 C61.56 -1.42, 105.73 -1.44, 131.5 0 M131.5 0 C141.12 -1, 148.37 4.06, 147 15.5 M131.5 0 C141.4 1.92, 145.84 4.04, 147 15.5 M147 15.5 C146.34 26.64, 145.7 37.73, 147 46.5 M147 15.5 C146.43 27.24, 147.41 38.32, 147 46.5 M147 46.5 C148.86 56.64, 140.45 63.58, 131.5 62 M147 46.5 C148.66 57.47, 139.95 60.11, 131.5 62 M131.5 62 C91.38 64, 53.42 63.29, 15.5 62 M131.5 62 C85.24 63.09, 39.59 62.84, 15.5 62 M15.5 62 C5.04 62.32, -1.32 54.84, 0 46.5 M15.5 62 C6.49 60.29, 0.43 56.16, 0 46.5 M0 46.5 C-0.3 38.54, -0.69 30.23, 0 15.5 M0 46.5 C0.8 38.24, 0.13 29.29, 0 15.5 M0 15.5 C-0.65 4.15, 3.33 1.03, 15.5 0 M0 15.5 C-0.09 6.14, 6.04 2.21, 15.5 0" stroke="#1e1e1e" stroke-width="2" fill="none"></path></g><g transform="translate(168.33333206176758 17) rotate(0 38.66666793823242 25)"><text x="38.66666793823242" y="17.52" font-family="Virgil, Segoe UI Emoji" font-size="20px" fill="#1e1e1e" text-anchor="middle" style="white-space: pre;" direction="ltr" dominant-baseline="alphabetic">address</text><text x="38.66666793823242" y="42.519999999999996" font-family="Virgil, Segoe UI Emoji" font-size="20px" fill="#1e1e1e" text-anchor="middle" style="white-space: pre;" direction="ltr" dominant-baseline="alphabetic">pointer</text></g><g stroke-linecap="round" transform="translate(282.5 10) rotate(0 40 31)"><path d="M15.5 0 C24.46 2.04, 35.3 1.29, 64.5 0 M15.5 0 C34.87 1.12, 55.3 -0.12, 64.5 0 M64.5 0 C74.89 -0.62, 80.22 4.52, 80 15.5 M64.5 0 C75.33 -0.61, 78.86 6.61, 80 15.5 M80 15.5 C82.1 24.25, 79.92 35.16, 80 46.5 M80 15.5 C79.11 25.65, 79.26 36.72, 80 46.5 M80 46.5 C81.18 55.4, 75.28 63.95, 64.5 62 M80 46.5 C78.8 56.35, 75.93 59.73, 64.5 62 M64.5 62 C53.1 62.05, 44.35 62.83, 15.5 62 M64.5 62 C51.87 62.35, 37.65 62.56, 15.5 62 M15.5 62 C4.75 63.67, 1.61 56.76, 0 46.5 M15.5 62 C6.74 62.22, -1.07 56.97, 0 46.5 M0 46.5 C-0.57 36.99, -1.86 24.21, 0 15.5 M0 46.5 C0.81 38.01, 1.26 29.92, 0 15.5 M0 15.5 C-0.42 6.61, 3.61 -1.43, 15.5 0 M0 15.5 C-1.31 6.51, 3.97 -0.03, 15.5 0" stroke="#1e1e1e" stroke-width="2" fill="none"></path></g><g transform="translate(294.13333320617676 16) rotate(0 28.366666793823242 25)"><text x="28.366666793823242" y="17.52" font-family="Virgil, Segoe UI Emoji" font-size="20px" fill="#1e1e1e" text-anchor="middle" style="white-space: pre;" direction="ltr" dominant-baseline="alphabetic">length</text><text x="28.366666793823242" y="42.519999999999996" font-family="Virgil, Segoe UI Emoji" font-size="20px" fill="#1e1e1e" text-anchor="middle" style="white-space: pre;" direction="ltr" dominant-baseline="alphabetic">3</text></g><g stroke-linecap="round" transform="translate(366 11) rotate(0 55 31)"><path d="M15.5 0 C43.33 -0.42, 69.93 1.61, 94.5 0 M15.5 0 C36.38 0.23, 55.87 1.21, 94.5 0 M94.5 0 C105.16 -0.73, 109 3.95, 110 15.5 M94.5 0 C105.29 0.2, 109.27 4.31, 110 15.5 M110 15.5 C111.1 24.51, 110.31 33.03, 110 46.5 M110 15.5 C109.3 22.02, 109.87 29.81, 110 46.5 M110 46.5 C109.86 58.11, 105.39 60.51, 94.5 62 M110 46.5 C108.28 58.33, 104.39 61.33, 94.5 62 M94.5 62 C68.65 63.05, 39.84 61.55, 15.5 62 M94.5 62 C72.46 62.36, 50.18 61.75, 15.5 62 M15.5 62 C3.26 62.78, -0.92 57.7, 0 46.5 M15.5 62 C4.64 63.76, -1.8 57.35, 0 46.5 M0 46.5 C-1.26 38.51, -1.27 29.37, 0 15.5 M0 46.5 C-0.79 40.55, 0.54 33.47, 0 15.5 M0 15.5 C0.72 3.73, 3.98 1.1, 15.5 0 M0 15.5 C0.33 5.77, 4.2 0.53, 15.5 0" stroke="#1e1e1e" stroke-width="2" fill="none"></path></g><g transform="translate(380.18333435058594 17) rotate(0 40.81666564941406 25)"><text x="40.81666564941406" y="17.52" font-family="Virgil, Segoe UI Emoji" font-size="20px" fill="#1e1e1e" text-anchor="middle" style="white-space: pre;" direction="ltr" dominant-baseline="alphabetic">capacity</text><text x="40.81666564941406" y="42.519999999999996" font-family="Virgil, Segoe UI Emoji" font-size="20px" fill="#1e1e1e" text-anchor="middle" style="white-space: pre;" direction="ltr" dominant-baseline="alphabetic">5</text></g><g stroke-linecap="round"><g transform="translate(132 38.79830193814951) rotate(0 -37 54.60084903092525)"><path d="M0 1.06 C-12.52 3.5, -63.37 -3.64, -75.19 14.5 C-87.02 32.65, -71.67 94.05, -70.94 109.93 M-1.46 0.57 C-13.62 2.65, -61.41 -5.36, -73.1 12.54 C-84.8 30.44, -72.05 92.14, -71.62 107.97" stroke="#1e1e1e" stroke-width="2" fill="none"></path></g><g transform="translate(132 38.79830193814951) rotate(0 -37 54.60084903092525)"><path d="M-82.74 85.58 C-77.75 90.15, -75.75 98.98, -71.62 107.97 M-82.74 85.58 C-78.09 92.9, -74.4 102.1, -71.62 107.97" stroke="#1e1e1e" stroke-width="2" fill="none"></path></g><g transform="translate(132 38.79830193814951) rotate(0 -37 54.60084903092525)"><path d="M-65.75 83.67 C-65.74 88.8, -68.71 98.19, -71.62 107.97 M-65.75 83.67 C-67.22 91.75, -69.65 101.64, -71.62 107.97" stroke="#1e1e1e" stroke-width="2" fill="none"></path></g></g><mask></mask></svg>
